<svg width="149" height="134" viewBox="0 0 149 134" fill="none" xmlns="http://www.w3.org/2000/svg">
<ellipse opacity="0.1" cx="81.5" cy="66.6" rx="67.5" ry="66.6" fill="url(#paint0_linear)"/>
<path fill-rule="evenodd" clip-rule="evenodd" d="M76.423 65.6146C64.6434 65.6146 55.0942 73.8816 55.0942 84.0794V84.1265C55.0942 94.3243 64.6434 102.591 76.423 102.591H107.877C109.052 102.591 110.204 102.509 111.328 102.351L117.422 107.447C117.587 107.585 117.809 107.662 118.039 107.662C118.53 107.662 118.928 107.318 118.928 106.893L118.928 99.9225C125.089 96.6849 129.205 90.8219 129.205 84.1265V84.0794C129.205 73.8816 119.656 65.6146 107.877 65.6146H76.423Z" fill="#1D4885"/>
<path d="M81.5964 21.3761H36.6853C19.8573 21.3761 6.21558 33.1861 6.21558 47.7544C6.21558 62.3227 19.8573 74.1326 36.6853 74.1326H81.5964C98.4244 74.1326 112.066 62.3227 112.066 47.7544C112.066 33.1861 98.4244 21.3761 81.5964 21.3761Z" fill="url(#paint1_linear)"/>
<path fill-rule="evenodd" clip-rule="evenodd" d="M20.895 66.4596V80.2689C20.895 80.8759 21.4634 81.368 22.1646 81.368C22.4934 81.368 22.8095 81.2575 23.0461 81.0598L34.7678 71.2685L20.895 66.4596Z" fill="url(#paint2_linear)"/>
<path d="M38.7484 51.0516C41.4655 51.0516 43.668 49.1447 43.668 46.7926C43.668 44.4404 41.4655 42.5336 38.7484 42.5336C36.0314 42.5336 33.8289 44.4404 33.8289 46.7926C33.8289 49.1447 36.0314 51.0516 38.7484 51.0516Z" fill="white"/>
<path d="M58.9029 51.0516C61.6199 51.0516 63.8225 49.1447 63.8225 46.7926C63.8225 44.4404 61.6199 42.5336 58.9029 42.5336C56.1859 42.5336 53.9833 44.4404 53.9833 46.7926C53.9833 49.1447 56.1859 51.0516 58.9029 51.0516Z" fill="white"/>
<path d="M79.5334 51.0516C82.2504 51.0516 84.453 49.1447 84.453 46.7926C84.453 44.4404 82.2504 42.5336 79.5334 42.5336C76.8164 42.5336 74.6138 44.4404 74.6138 46.7926C74.6138 49.1447 76.8164 51.0516 79.5334 51.0516Z" fill="white"/>
<defs>
<linearGradient id="paint0_linear" x1="175.583" y1="-201.501" x2="76.8888" y2="148.202" gradientUnits="userSpaceOnUse">
<stop stop-color="#5498FF"/>
<stop offset="0.515625" stop-color="#428EFF"/>
<stop offset="1" stop-color="#297FFF"/>
</linearGradient>
<linearGradient id="paint1_linear" x1="132.909" y1="-58.4323" x2="112.015" y2="88.1278" gradientUnits="userSpaceOnUse">
<stop stop-color="#5498FF"/>
<stop offset="0.515625" stop-color="#428EFF"/>
<stop offset="1" stop-color="#297FFF"/>
</linearGradient>
<linearGradient id="paint2_linear" x1="37.4995" y1="43.9067" x2="25.6313" y2="82.5164" gradientUnits="userSpaceOnUse">
<stop stop-color="#5498FF"/>
<stop offset="0.515625" stop-color="#428EFF"/>
<stop offset="1" stop-color="#297FFF"/>
</linearGradient>
</defs>
</svg>
